<svg xmlns="http://www.w3.org/2000/svg" viewBox="0 0 1200 1600" fill="none">
  <path d="M-30 153c164 28 245 137 341 219 131 112 322 126 500 42 129-61 214-176 389-214" stroke="white" stroke-opacity=".45" stroke-width="3"/>
  <path d="M1202 441c-179 7-299 78-390 176-93 100-207 187-415 202-174 12-321-67-397-149" stroke="white" stroke-opacity=".32" stroke-width="2.6"/>
  <path d="M-14 1012c131-83 328-118 470-40 79 43 140 115 218 159 165 94 349 43 528-132" stroke="white" stroke-opacity=".34" stroke-width="2.4"/>
  <path d="M99 1345c213-85 398-14 555 63 120 58 255 85 451 31" stroke="white" stroke-opacity=".3" stroke-width="2.4"/>
</svg>
